<svg id="Layer_3" enable-background="new 0 0 64 64" height="512" viewBox="0 0 64 64" width="512" xmlns="http://www.w3.org/2000/svg"><g><path d="m23.64 47.614c.902 3.008 1.36 6.124 1.36 9.265h2c0-3.335-.486-6.646-1.444-9.839z"/><path d="m46 48.879c0-3.3-.308-6.617-.916-9.858l-1.966.369c.585 3.12.882 6.312.882 9.489z"/><path d="m63 14.609c0-3.828-2.094-7.334-5.463-9.148l-.139-.075c-5.329-2.869-11.345-4.386-17.398-4.386s-12.069 1.517-17.4 4.387l-.136.073c-3.37 1.815-5.464 5.321-5.464 9.149 0 .941.133 1.862.379 2.756-3.792.581-7.461 1.858-10.793 3.801l-.993.579c-2.833 1.653-4.593 4.718-4.593 7.998 0 5.052 4.069 9.164 9.1 9.249.462 2.283 2.483 4.008 4.9 4.008h.656l-1.212 4.04c-.958 3.193-1.444 6.504-1.444 9.839 0 1.636.637 3.173 1.793 4.328 1.157 1.156 2.694 1.793 4.328 1.793h5.758c1.634 0 3.171-.637 4.328-1.793 1.156-1.155 1.793-2.692 1.793-4.328 0-1.843-.163-3.675-.458-5.488.301.667.718 1.283 1.251 1.816 1.157 1.156 2.694 1.793 4.328 1.793h7.758c1.634 0 3.171-.637 4.328-1.793 1.156-1.155 1.793-2.692 1.793-4.328 0-3.3-.308-6.617-.916-9.858l-1.879-10.021h.795c2.419 0 4.441-1.728 4.9-4.015 5.594-.156 10.1-4.745 10.1-10.376zm-60 15.134c0-2.571 1.379-4.974 3.601-6.269l.993-.58c4.366-2.547 9.348-3.894 14.406-3.894s10.04 1.347 14.406 3.896l.993.579c2.222 1.295 3.601 3.697 3.601 6.268 0 4.001-3.256 7.257-7.257 7.257h-23.486c-4.001 0-7.257-3.256-7.257-7.257zm9.184 9.257h19.631c-.414 1.161-1.514 2-2.816 2h-13.999c-1.302 0-2.402-.839-2.816-2zm15.609 20.793c-.768.767-1.83 1.207-2.914 1.207h-5.758c-1.084 0-2.146-.44-2.914-1.207-.778-.778-1.207-1.813-1.207-2.914 0-3.141.458-6.257 1.36-9.265l1.384-4.614h8.512l1.384 4.614c.902 3.008 1.36 6.124 1.36 9.265 0 1.101-.429 2.136-1.207 2.914zm1.763-12.753-1.212-4.04h.656c.471 0 .917-.086 1.349-.208-.226 1.978-.342 3.975-.347 5.96-.14-.573-.276-1.146-.446-1.712zm17.562-7.65c.585 3.12.882 6.312.882 9.489 0 1.102-.429 2.136-1.207 2.914-.768.767-1.83 1.207-2.914 1.207h-7.758c-1.084 0-2.146-.44-2.914-1.207-.778-.778-1.207-1.813-1.207-2.914 0-2.45.182-4.917.531-7.343.683-.683 1.17-1.562 1.368-2.544 5.032-.085 9.1-4.197 9.1-9.249 0-.25-.029-.496-.05-.743h2.22zm.882-12.39h-5.436c-.219-.701-.512-1.373-.887-2h9.139c-.414 1.161-1.514 2-2.816 2zm4.609-4h-12.549c-.501-.471-1.046-.9-1.652-1.254l-.993-.578c-4.673-2.727-10.003-4.168-15.415-4.168-.874 0-1.744.051-2.612.126-.255-.811-.388-1.654-.388-2.517 0-3.092 1.691-5.923 4.414-7.389l.136-.073c5.038-2.713 10.727-4.147 16.45-4.147s11.412 1.434 16.449 4.146l.139.075c2.721 1.466 4.412 4.297 4.412 7.388 0 4.627-3.764 8.391-8.391 8.391z"/><path d="m57 14c0 2.757-2.243 5-5 5v2c3.86 0 7-3.141 7-7z"/></g></svg>