<svg height="512" viewBox="0 0 64 64" width="512" xmlns="http://www.w3.org/2000/svg"><g id="Filled_outline" data-name="Filled outline"><path d="m27 43.989a3 3 0 0 1 3-3 3 3 0 0 1 -3-3 4.8 4.8 0 0 0 0-1l-9 .011a3.663 3.663 0 0 0 -4 4v4l13-.011c-.112-.314 0 0 0-1z" fill="#ad6327"/><path d="m27.006 48.989-13.006.011v4l17-.011c-1 .185-4-2-3.994-4z" fill="#ad6327"/><path d="m27 44.989-11 .011v4l11.01-.011a5.386 5.386 0 0 1 -.01-1 3.228 3.228 0 0 1 1-2c-.549-.362-.784-.389-1-1z" fill="#66342e"/><path d="m35 32v-21h26v34h-22a4 4 0 0 1 -4-4z" fill="#ffd782"/><path d="m35 29h5a5 5 0 0 1 5 5 5 5 0 0 1 -5 5h-5a0 0 0 0 1 0 0v-10a0 0 0 0 1 0 0z" fill="#e33e5c"/><path d="m13 55-2 1.148v4.852h-8v-19l5.927-7.891a2.491 2.491 0 0 1 2.073-1.109h5a2 2 0 0 1 2 2 2 2 0 0 1 -2 2h-4l-2 3v10l2-2a2.122 2.122 0 0 1 3 0 2.122 2.122 0 0 1 0 3l-1 1z" fill="#ffd782"/><path d="m61 61h-26v-8a4 4 0 0 1 4-4h22z" fill="#b11e48"/><path d="m35 3h-9l6 4-6 4h26v7a9 9 0 0 0 9 9v-20a4 4 0 0 0 -4-4z" fill="#394d5c"/><path d="m40 29h-5v4h9.9a5 5 0 0 0 -4.9-4z" fill="#f4f4e6"/><path d="m39 15h6v2h-6z"/><path d="m61 48h-22a5.006 5.006 0 0 0 -5 5v8a1 1 0 0 0 1 1h26a1 1 0 0 0 1-1v-12a1 1 0 0 0 -1-1zm-1 12h-24v-7a3 3 0 0 1 3-3h21z"/><path d="m57 2h-31a1 1 0 0 0 -.555 1.832l4.755 3.168-4.752 3.168a1 1 0 0 0 .552 1.832h8v29a5.006 5.006 0 0 0 5 5h22a1 1 0 0 0 1-1v-38a5.006 5.006 0 0 0 -5-5zm-21 32h8a4 4 0 0 1 -4 4h-4zm0-2v-2h4a3.987 3.987 0 0 1 3.444 2zm3 12a3 3 0 0 1 -3-3v-1h4a6 6 0 0 0 0-12h-4v-16h15v6a10.013 10.013 0 0 0 9 9.949v16.051zm21-18.062a8.013 8.013 0 0 1 -7-7.938v-7a1 1 0 0 0 -1-1h-22.7l3.252-2.168a1 1 0 0 0 0-1.664l-3.252-2.168h27.7a3 3 0 0 1 3 3z"/><path d="m47 27h2v2h-2z"/><path d="m46 40h2v2h-2z"/><path d="m31 51.99h-.155c-.713-.09-2.845-1.737-2.835-2.99v-.007a6.908 6.908 0 0 1 .538-2.163 1 1 0 0 0 0-1.672 4.333 4.333 0 0 1 -.581-.433 6.887 6.887 0 0 0 .03-.732 2 2 0 0 1 2-2 1 1 0 1 0 0-2 2 2 0 0 1 -2-2c0-.1.007-.238.014-.371.029-.6.047-.97-.282-1.315a1.024 1.024 0 0 0 -.729-.318l-8.184.011a2.96 2.96 0 0 0 .184-1 3 3 0 0 0 -3-3h-5a3.453 3.453 0 0 0 -2.872 1.509l-5.928 7.891a1 1 0 0 0 -.2.6v19a1 1 0 0 0 1 1h8a1 1 0 0 0 1-1v-4.273l1.5-.86a1 1 0 0 0 .451-.551l.437-1.316 16.312-.01a2.331 2.331 0 0 0 .535-.028 1 1 0 0 0 -.235-1.972zm-17.707-6.282a1 1 0 0 0 .707.292h1v.78a3.116 3.116 0 0 0 -3.707.514l-.293.292v-7.286l1.535-2.3h1.286a5.517 5.517 0 0 0 -.821 3v4a1 1 0 0 0 .293.708zm3.707 2.292v-2l9.4-.009a1.815 1.815 0 0 0 .161.192 7.23 7.23 0 0 0 -.526 1.563 1.764 1.764 0 0 0 -.042.245zm10.357-7.01a3.992 3.992 0 0 0 -1.357 3l-11 .01v-3a2.689 2.689 0 0 1 3-3l8-.01a3.99 3.99 0 0 0 1.357 2.999zm-16.857 14.291a1 1 0 0 0 -.5.867v3.852h-6v-17.667l5.759-7.669a1.489 1.489 0 0 1 1.241-.664h5a1 1 0 0 1 0 2h-4a1 1 0 0 0 -.832.445l-2 3a1.006 1.006 0 0 0 -.168.555v10a1 1 0 0 0 1.707.707l2-2a1.148 1.148 0 0 1 1.586 0 1.123 1.123 0 0 1 0 1.586l-1 1a1.013 1.013 0 0 0 -.242.391l-.879 2.638zm4.915-3.281.292-.292a3.1 3.1 0 0 0 .865-1.708l9.6-.008a5.465 5.465 0 0 0 1.218 2z"/><path d="m41.293 19.293-3 3 1.414 1.414 2.293-2.293 2.293 2.293 1.414-1.414-3-3a1 1 0 0 0 -1.414 0z"/><path d="m49 34a5.006 5.006 0 0 0 5 5v-2a3 3 0 0 1 0-6v-2a5.006 5.006 0 0 0 -5 5z"/></g></svg>