<?xml version="1.0" encoding="iso-8859-1"?>
<!-- Generator: Adobe Illustrator 19.0.0, SVG Export Plug-In . SVG Version: 6.00 Build 0)  -->
<svg version="1.1" id="Capa_1" xmlns="http://www.w3.org/2000/svg" xmlns:xlink="http://www.w3.org/1999/xlink" x="0px" y="0px"
	 viewBox="0 0 512 512" style="enable-background:new 0 0 512 512;" xml:space="preserve">
<g>
	<g>
		<path d="M437.333,128.013c2.656,0,5.229-1,7.208-2.812c2.208-2.021,3.458-4.854,3.458-7.854V74.681
			c0-5.625-4.375-10.291-10-10.645C270.448,53.557,79.427,0.934,77.521,0.413c-3.198-0.937-6.646-0.25-9.313,1.771
			C65.563,4.204,64,7.35,64,10.683v21.333c0,3.896,2.135,7.5,5.563,9.354c54.71,29.843,135.415,50.433,207.249,64.034
			c-0.888,18.189-4.111,35.305-8.396,50.13c-16.65-6.44-36.167-7.957-57.332-4.126c-32.948,6-66.125,24.312-93.406,51.602
			C60.333,260.383,47.021,340.381,88,381.338c15.792,15.791,37.448,24.041,62.406,24.041c7.24,0,14.771-0.708,22.51-2.104
			c21.262-3.872,42.452-13.336,62.258-26.565C240.25,452.477,285.905,512,341.333,512C400.146,512,448,445.002,448,362.672
			c0-78.523-43.561-142.952-98.611-148.757c-4.341-50.298-13.337-81.588-20.706-99.557c58.932,9.246,103.483,13.246,107.723,13.613
			C436.719,127.992,437.031,128.013,437.333,128.013z M169.104,382.271c-27.313,4.958-50.729-0.729-66.021-16.021
			c-32.667-32.646-19.344-99.125,29.677-148.167c24.25-24.25,53.417-40.479,82.135-45.688c17.648-3.202,33.359-1.51,46.603,3.884
			c-2.029,5.298-3.982,9.938-5.837,14.043c-0.833-5.064-5.027-8.99-10.328-8.99c-5.896,0-10.667,4.771-10.667,10.667
			c0,23.521,19.135,42.667,42.667,42.667c5.896,0,10.667-4.771,10.667-10.667s-4.771-10.667-10.667-10.667
			c-2.93,0-5.721-0.6-8.266-1.673c2.802-5.31,6.669-13.436,10.891-23.96c0.289,0.277,0.674,0.432,0.958,0.716
			c11.392,11.384,16.859,27.018,17.501,44.457c0.008,0.131,0.026,0.258,0.039,0.391c1.048,32.49-15.422,71.51-47.217,103.319
			C226.99,360.833,197.823,377.063,169.104,382.271z M287.622,166.095c5.061-16.458,9.026-35.875,10.315-56.857
			c1.707,0.299,3.408,0.595,5.1,0.887c5.184,8.855,19.272,38.424,25.076,104.871c-3.37,0.598-6.707,1.359-10.04,2.411
			c-2.999-16.954-10.181-32.188-22.073-44.074C293.37,170.703,290.565,168.302,287.622,166.095z M370.885,273.479
			c3.75-4.542,3.125-11.271-1.417-15.021c-4.521-3.729-11.26-3.104-15.021,1.396c-0.79,0.956-1.789,1.404-2.673,2.152
			c-0.168-9.276-0.461-18.133-0.902-26.488c42.573,7.143,75.794,61.408,75.794,127.148c0,70.583-38.281,128-85.333,128
			c-47.052,0-85.333-57.417-85.333-128l-0.014-1.98c3.444-3.02,7.053-5.734,10.337-9.02c23.167-23.18,39.006-50.047,47.124-76.546
			c7.577,8.215,17.341,12.879,27.887,12.879C352.625,288,363.125,282.833,370.885,273.479z M329.573,236.181
			c0.428,8.004,0.704,16.544,0.874,25.467c-0.725-0.652-1.569-0.997-2.228-1.794c-2.572-3.083-6.503-4.207-10.186-3.514
			c0.948-5.694,1.371-11.286,1.547-16.811C322.904,238.171,326.223,236.918,329.573,236.181z M426.667,105.563
			c-48.885-5.083-240.073-27.729-341.333-79.979v-1.042C131.156,36.479,285.458,74.5,426.667,84.646V105.563z"/>
	</g>
</g>
<g>
</g>
<g>
</g>
<g>
</g>
<g>
</g>
<g>
</g>
<g>
</g>
<g>
</g>
<g>
</g>
<g>
</g>
<g>
</g>
<g>
</g>
<g>
</g>
<g>
</g>
<g>
</g>
<g>
</g>
</svg>
